<svg xmlns="http://www.w3.org/2000/svg" width="256" height="256"><path fill-opacity=".016" d="M0 128.004v128.004l128.25-.254 128.25-.254.254-127.75L257.008 0H0v128.004m.485.496c0 70.4.119 99.053.265 63.672.146-35.38.146-92.98 0-128C.604 29.153.485 58.1.485 128.5" fill="#1976D2" fill-rule="evenodd"/><path fill-opacity=".179" d="M156.913 4.25c-4.286 5.877-7.145 11.725-10.88 22.25-3.885 10.949-8.014 30.107-8.025 37.235L138 68.969l-5.25-3.993c-2.887-2.197-8.85-5.429-13.25-7.182-7.49-2.985-8.881-3.202-21.817-3.403l-13.817-.214-5.683-5.399C66.902 38.062 46.64 26.488 28.616 20.465 17.261 16.67 7 14.912 7 16.761c0 2.143 9.3 13.297 17.947 21.526 12.41 11.809 29.496 22.827 41.368 26.675 3.437 1.113 3.672 1.4 2.364 2.887-1.864 2.121-6.058 10.495-8.58 17.134-1.084 2.851-3.65 7.622-5.702 10.603-5.118 7.43-5.493 13.036-1.599 23.914 1.575 4.4 3.187 8.72 3.582 9.601.606 1.348-.308 1.696-5.789 2.208-3.579.335-8.301 1.523-10.492 2.64-8.783 4.481-12.443 14.537-8.268 22.719 2.398 4.7 8.121 10.031 11.747 10.941 1.398.351 2.348 1.145 2.112 1.764-3.627 9.52-15.952 46.466-16.38 49.101-.672 4.144 1.771 11.384 4.751 14.081 1.953 1.767 1.858 1.866-5.205 5.373-7.683 3.814-9.583 5.736-8.489 8.586.616 1.604 1.67 1.724 10.409 1.18 13.966-.87 25.36-3.223 27.361-5.651 2.303-2.794 16.625-4.159 25.217-2.404 3.38.69 11.246 2.135 17.48 3.21 8.132 1.403 11.845 2.503 13.14 3.893 1.048 1.124 4.475 2.466 8.166 3.195 3.498.691 10.354 2.362 15.236 3.714 10.517 2.911 14.984 2.829 15.428-.284.375-2.627-4.915-7.237-12.904-11.247l-5.601-2.811 2.101-2.881c2.266-3.109 2.884-11.862 1.28-18.136l-.821-3.208 6.127 2.069c3.369 1.137 6.302 1.892 6.517 1.677.216-.216.702-4.5 1.081-9.522l.69-9.13 4.613 1.4c2.537.77 4.708 1.405 4.825 1.411.116.006 3.408-5.41 7.315-12.036 5.479-9.289 7.49-11.924 8.789-11.513.926.293 10.613 3.191 21.527 6.44l19.843 5.908 15.157-15.509c9.969-10.2 15.157-16.239 15.157-17.644 0-1.736-1.493-2.73-8-5.323-17.001-6.776-45.275-13.29-57.849-13.327-6.75-.02-8.048-.899-7.178-4.86.377-1.719 1.048-3.125 1.49-3.125.442 0 1.046-1.238 1.343-2.75.4-2.037-.101-3.425-1.932-5.355-1.359-1.433-2.336-3.233-2.172-4 .696-3.258-15.468-1.853-24.826 2.158l-4.496 1.927.663-4.74c.364-2.607 1.516-8.673 2.56-13.479 1.043-4.807 1.897-10.653 1.897-12.992 0-2.832 1.155-6.591 3.46-11.26 7.416-15.022 12.07-40.79 11.292-62.509-.47-13.103-1.625-19-3.721-19-.56 0-2.413 1.912-4.118 4.25M78.364 83.493c-.346.903-.15 2.121.436 2.707 1.524 1.524 4.41.131 4.012-1.935-.443-2.302-3.647-2.858-4.448-.772m48.927 13.616c-1.585 1.585-.467 3.891 1.886 3.891 1.445 0 1.878-.572 1.643-2.172-.377-2.556-1.934-3.314-3.529-1.719M151 161.223c-3.575 3.306-9.312 8.023-12.75 10.482l-6.25 4.471.015 12.662c.009 6.964.355 13.196.771 13.849.415.654 1.983 1.655 3.484 2.226 3.273 1.244 3.264 1.316 1.569-12.477-.639-5.196-.976-9.624-.75-9.841.226-.216 3.558.202 7.404.93 3.846.727 7.107 1.208 7.247 1.068.442-.442 6.334-28.853 6.04-29.124-.154-.142-3.205 2.447-6.78 5.754" fill="#1976D2" fill-rule="evenodd"/><path fill-opacity=".243" d="M157.755 3.255c-8.596 11.27-17.515 37.978-19.315 57.841l-.685 7.562-6.312-4.233c-11.441-7.671-23.821-10.98-38.174-10.203l-8.769.475-5.813-5.354C68.706 40.15 51.547 29.556 37.5 23.915 23.395 18.25 6.979 14.393 7.01 16.75c.024 1.881 10.764 14.776 17.709 21.261 13.006 12.147 30.824 23.662 40.415 26.12 2.697.691 4.778 1.507 4.626 1.813-.153.306-2.109 4.156-4.347 8.556-2.239 4.4-4.676 9.575-5.416 11.5-.74 1.925-2.864 5.83-4.72 8.677-1.856 2.848-3.803 6.67-4.326 8.493-1.285 4.48.44 13.531 4.129 21.667 1.606 3.542 2.916 6.49 2.911 6.551-.005.062-2.865.192-6.356.289-11.81.329-20.055 6.58-21.343 16.183-.965 7.196 5.433 16.754 12.977 19.384 2.242.781 2.669 1.399 2.156 3.115-.353 1.178-4.012 11.816-8.131 23.641-9.256 26.566-9.648 31.437-3.109 38.628l1.934 2.128-6.326 2.96c-8.073 3.778-10.146 5.756-8.756 8.353 1.287 2.405 5.564 2.5 19.463.431 14.141-2.105 15.36-2.434 17.479-4.708 1.441-1.547 3.873-2.234 10.206-2.884 7.275-.746 10.303-.481 24.202 2.119 8.738 1.635 16.899 2.973 18.135 2.973 1.245 0 2.923 1.03 3.76 2.308 1.156 1.765 3.127 2.599 8.365 3.542 3.769.679 10.992 2.395 16.05 3.813 18.92 5.307 19.433-1.959.803-11.376-2.75-1.39-5.152-2.663-5.338-2.829-.186-.165.712-1.721 1.994-3.456 2.53-3.421 3.032-8.997 1.509-16.729l-.833-4.228 4.834 1.467c8.093 2.455 7.956 2.568 8.707-7.199.367-4.778.792-8.811.944-8.963.152-.152 2.365.352 4.918 1.12l4.643 1.398 6.728-11.684c3.701-6.426 6.865-11.858 7.031-12.071.167-.212 10.014 2.46 21.882 5.939l21.58 6.325 15.45-15.426c8.498-8.485 15.451-16.158 15.451-17.052 0-5.633-49.289-18.899-70.217-18.899-5.231 0-5.424-.452-2.774-6.5.723-1.65 1.218-3.409 1.1-3.908-.118-.5.372-1.296 1.088-1.768.993-.656.649-1.439-1.447-3.294-1.512-1.339-2.75-3.422-2.75-4.629 0-2.121-.252-2.173-7.497-1.561-6.482.548-13.319 2.318-19.753 5.114-2.441 1.06-2.309-1.813.745-16.2 1.372-6.465 2.497-13.454 2.5-15.533.003-2.199 1.255-6.254 2.996-9.703 3.686-7.302 7.224-19.331 9.564-32.518C165.712 31.714 164.767 0 161.08 0c-.463 0-1.96 1.465-3.325 3.255m-11.188 27.722C143.052 42.104 140 57.731 140 64.602c0 4.914.404 6.211 2.677 8.583 5.052 5.273 1.385 4.087-4.656-1.505-7.913-7.326-20-13.283-30.021-14.795-7.407-1.118-21.69-.712-25.424.723-1.572.604-1.796.408-1.228-1.073 1.399-3.646-15.972-16.975-34.174-26.223C41.425 27.39 36.333 25 35.86 25c-.984 0-1.122 6.781-.247 12.073.563 3.403 1.406 4.059 17.739 13.805 23.276 13.888 21.493 12.188 17.711 16.894-1.725 2.147-5.051 8.326-7.391 13.73l-4.253 9.826 2.224 2.224c4.698 4.698 4.272 16.197-.814 21.99-1.67 1.902-3.665 3.458-4.433 3.458-1.913 0-1.769 1.1.946 7.239 2.314 5.233 2.413 5.31 8.286 6.523 3.344.691 8.334 2.747 11.408 4.701 3.005 1.91 6.716 3.986 8.247 4.614 2.047.84 2.628 1.627 2.199 2.979-.48 1.513.34 2.11 4.649 3.39 2.878.855 6.5 1.554 8.051 1.554 4.069 0 3.475 1.317-1.777 3.94l-4.595 2.295-2.877-2.127c-2.021-1.494-2.706-1.68-2.301-.626a1.593 1.593 0 01-.918 2.074c-.896.344-1.291 1.346-.987 2.509.346 1.324-.004 1.935-1.11 1.935-.89 0-1.617.682-1.617 1.516 0 1.029-.883 1.46-2.75 1.341-1.513-.096-4.55.62-6.75 1.592-6.683 2.95-13.681 4.527-20.152 4.539-5.804.011-6.208.168-7.129 2.762-9.108 25.656-15.163 43.377-15.687 45.916-.757 3.664.724 10.015 2.999 12.865 1.556 1.948 1.567 1.947 1.016-.083-.306-1.129.086-2.929.872-4 1.409-1.922 1.547-1.915 10.255.521 11.519 3.222 24.434 3.737 37.001 1.474 6.717-1.21 12.381-1.548 19.633-1.172 13.058.675 20.027 2.829 24.889 7.691 3.384 3.384 3.889 3.594 5.149 2.145 4.685-5.389 4.69-9.21.035-24.624-3.217-10.656-3.627-13.268-3.703-23.588-.072-9.815-.324-11.589-1.632-11.5-2.282.155-1.419-4.119 1.781-8.825 1.836-2.7 6.899-6.662 16.173-12.657 17.688-11.433 17.657-11.409 20.578-16.037 1.943-3.078 2.956-3.841 4.462-3.363 1.484.471 1.805.245 1.347-.948-.331-.861-.103-1.565.506-1.565s1.107-.675 1.107-1.5.408-1.5.906-1.5c.499 0 .671-.9.384-2-.334-1.276-.029-2.006.843-2.015 1.086-.012 1.066-.206-.099-.943-.93-.588-1.937-.538-2.75.138-1.005.833-1.284.277-1.284-2.558 0-3.445-.165-3.622-3.364-3.622-5.168 0-13.144 1.733-18.419 4.002-4.19 1.802-4.976 2.641-6.5 6.931-2.104 5.926-10.208 13.756-17.969 17.363-6.482 3.012-10.748 4.093-10.748 2.723 0-.56.563-1.019 1.25-1.02.688 0 4.059-1.33 7.493-2.954l6.243-2.954-2.053-3.479c-1.817-3.081-1.915-3.94-.851-7.49 2.269-7.574 10.944-15.201 15.362-13.505 1.2.46 1.556-.106 1.556-2.471 0-1.688.899-6.923 1.997-11.634 1.226-5.259 1.963-11.787 1.907-16.909-.06-5.587.402-9.294 1.399-11.223 3.955-7.653 10.865-26.59 11.838-32.443.987-5.94.893-6.951-.99-10.642C157.84 29.766 151.865 23 150.175 23c-.598 0-2.222 3.589-3.608 7.977m-72.252 49.03c-4.692 1.891-5.835 9.216-2.001 12.819 4.98 4.678 13.086.759 13.086-6.325 0-6.006-5.01-8.941-11.085-6.494m3.405 3.281c-.793 2.066.755 3.96 2.9 3.547 2.657-.512 2.461-4.252-.243-4.638-1.167-.166-2.363.324-2.657 1.091m46.735 13.167c-3.647 3.646-3.356 8.609.703 12.025 2.35 1.977 3.822 2.501 5.75 2.046 7.148-1.686 8.493-11.716 2.02-15.063-3.942-2.039-5.642-1.84-8.473.992m-25.009.632c-.971 1.571.929 3.09 2.912 2.329 1.315-.505 1.437-.958.545-2.033-1.381-1.664-2.55-1.764-3.457-.296m27.512.463c-1.062 1.281-.997 1.84.378 3.214 1.552 1.553 1.776 1.553 3.328 0 1.375-1.374 1.44-1.933.378-3.214-.708-.852-1.627-1.55-2.042-1.55-.415 0-1.334.698-2.042 1.55M82.8 103.2c.777.777 1.2 4.811 1.2 11.451 0 12.666 1.355 19.395 4.502 22.35 3.162 2.971 6.3 2.144 12.077-3.18 4.224-3.894 13.421-17.283 13.421-19.538 0-.577.945-1.297 2.101-1.599 1.155-.302 1.816-1.01 1.468-1.573-.348-.563-1.295-.77-2.103-.459-2.42.928-5.841-.394-10.784-4.169-4.647-3.548-4.712-3.564-12.041-2.9-5.044.458-7.587.313-8.063-.457-.383-.62-1.209-1.126-1.837-1.126-.822 0-.805.336.059 1.2m-38.079 31.156C37.228 136.472 32 142.483 32 148.982c0 3.595 2.242 9.432 4.052 10.55.815.504 1.006.371.543-.377-.94-1.522.684-1.482 17.156.428 8.306.963 15.436 1.288 18.202.829 5.188-.861 4.82-.863 7.797.04 1.667.506 2.25.276 2.25-.885 0-.862.702-1.567 1.559-1.567.922 0 1.268-.471.847-1.152-.391-.633.059-1.715 1.001-2.404 1.09-.797 1.327-1.49.653-1.907-1.621-1.002-1.261-2.537.595-2.537 1.54 0 1.54-.127 0-1.829-.91-1.006-1.674-2.243-1.698-2.75-.071-1.493-11.038-8.102-16.457-9.917-6.806-2.279-17.881-2.814-23.779-1.148m120.026 11.343c-3.112 4.271-3.908 6.786-7.217 22.801-2.045 9.9-3.891 18.177-4.101 18.393-.21.216-2.942-.122-6.072-.75-3.13-.629-6.084-1.143-6.564-1.143-.481 0 3.027 2.942 7.795 6.538s8.798 6.409 8.955 6.25c.157-.158 2.067-8.662 4.243-18.898 2.177-10.235 4.353-19.303 4.836-20.151.737-1.294 2.994-.369 14.034 5.747 14.906 8.258 20.012 11.572 29.541 19.172 3.683 2.938 7.063 5.342 7.512 5.342.449 0 7.513-6.708 15.697-14.906l14.882-14.907-3.894-1.97c-14.797-7.49-42.937-14.124-66.521-15.683l-9.627-.637-3.499 4.802m-12.247 13.48c-5.416 5.408-15.385 13.538-19.258 15.706-1.205.674-1.524 3.423-1.621 13.94-.131 14.157.25 15.315 5.439 16.522l2.559.596-1.274-11.174c-.701-6.145-1.063-11.385-.804-11.643.258-.258 3.446.079 7.084.749 3.638.67 6.898.936 7.245.59.541-.541 7.081-30.691 6.75-31.121-.066-.086-2.82 2.54-6.12 5.835M34.854 237.128c-3.173 1.163-4.871 5.33-1.771 4.346 3.514-1.116 1.974 1.231-1.833 2.793l-3.75 1.539 3.106.097c2.134.067 4.601-1.044 7.88-3.548l4.774-3.645-2.38-1.32c-2.762-1.531-2.585-1.523-6.026-.262m-7.413 3.427c-1.83 1.467-1.798 1.487.559.365 3.061-1.458 3.628-1.92 2.358-1.92-.537 0-1.849.7-2.917 1.555m-1.934 3.434c-.35.566.051.734.941.393 1.732-.665 2.049-1.382.611-1.382-.518 0-1.216.445-1.552.989m109.493.104c-1.375.44-4.412 1.291-6.75 1.892-4.24 1.09-5.817 3.001-2.5 3.03.963.009 5.35.958 9.75 2.11 12.466 3.263 13.493 3.223 7-.278-4.037-2.176-5.427-3.359-4.25-3.614 2.014-.437 2.354-2.797.5-3.479-.687-.253-2.375-.1-3.75.339" fill="#1976D2" fill-rule="evenodd"/><path fill-opacity=".987" d="M156.287 6.25c-2.308 3.438-5.759 10.163-7.669 14.945-3.619 9.061-8.68 27.566-8.534 31.203.047 1.156.947-1.723 2.001-6.397 2.356-10.446 6.8-24.001 7.87-24.001 1.405 0 8.846 8.687 10.836 12.651 1.899 3.782 1.9 4.04.082 14.849-2.869 17.052-9.107 35.5-12.005 35.5-.717 0-.852 1.273-.393 3.718.476 2.539-.198 8.09-2.126 17.5-2.667 13.015-2.955 13.782-5.182 13.782-5.83 0-12.904 7.623-13.889 14.967-.445 3.318-.134 4.557 1.609 6.413l2.162 2.301-5.775 3.211c-3.175 1.765-4.649 2.915-3.274 2.555 3.472-.909 10.441-5.017 14.382-8.478 2.986-2.621 6.706-8.733 8.014-13.167 1.071-3.629 13.205-7.77 22.829-7.79l5.725-.012-.559 3.25c-.405 2.351-.28 2.853.449 1.814.838-1.194 1.274-1.214 2.596-.117 1.102.915 1.281 1.689.585 2.528-.552.665-.718 1.494-.37 1.843.349.348.124 1.248-.5 2-.623.751-.838 1.662-.476 2.024.362.362.133.658-.508.658-.642 0-1.167.675-1.167 1.5s-.869 1.5-1.932 1.5c-1.062 0-2.953 1.462-4.201 3.25-8.035 11.507-22.925 26.089-33.157 32.472-3.184 1.986-5.375 3.874-4.869 4.195.506.32 1.155 6.433 1.442 13.583.439 10.941 1.012 14.497 3.619 22.451 4.602 14.038 4.143 20.816-1.746 25.794l-2.656 2.245 2.5.047c2.947.055 8.912 3.038 8.875 4.438-.014.536.571 1.133 1.3 1.326.904.24.849-.014-.175-.801-1.333-1.024-1.333-1.107 0-.743.825.225 1.5 1.01 1.5 1.743 0 .733.526 1.509 1.17 1.723.656.219 1.059-.403.918-1.416-.151-1.083-2.639-3.01-6.208-4.809l-5.956-3.003 2.288-3.395c2.497-3.706 3.109-11.75 1.358-17.857-1.077-3.753-1.114-3.742 5.89-1.662 6.549 1.945 6.997 1.461 7.04-7.581.04-8.582.654-9.467 5.612-8.091 2.138.594 4.208 1.082 4.6 1.085.391.003 3.86-5.332 7.707-11.857l6.995-11.862 21.607 6.425 21.607 6.424 15.451-15.812c11.039-11.297 15.221-16.21 14.644-17.206-1.053-1.819-14.222-7.065-26.223-10.448-13.883-3.913-27.98-6.406-40.771-7.21-6.2-.389-11.514-1.1-11.809-1.578-.296-.479.614-.87 2.021-.87 1.608 0 2.559-.557 2.559-1.5 0-.825.414-1.5.921-1.5.506 0 1.237-1.462 1.625-3.25.388-1.787 1.143-3.529 1.677-3.869.536-.342-.152-1.688-1.534-3-1.378-1.31-2.672-3.281-2.876-4.381-.33-1.781-1.024-1.964-6.342-1.67-7.7.427-13.708 1.755-18.577 4.107L145 124.819v-3.83c0-2.106 1.136-9.084 2.525-15.507 1.388-6.422 2.427-13.128 2.307-14.9-.124-1.845.675-4.69 1.868-6.653 8.202-13.494 14.686-51.159 12.336-71.659-.78-6.8-2.264-12.27-3.329-12.27-.123 0-2.111 2.813-4.42 6.25M8.449 18.629c3.841 6.004 12.713 16.212 18.354 21.119 13.471 11.716 32.398 23.261 40.685 24.816l3.406.639-2.495 3.77c-1.372 2.073-4.47 8.321-6.884 13.883-2.415 5.563-5.622 11.729-7.127 13.701-4.847 6.356-4.418 16.221 1.276 29.317 1.285 2.956 2.336 5.544 2.336 5.75 0 .207-2.362.379-5.25.382-7.727.008-12.749 1.758-16.868 5.876-6.248 6.249-6.883 14.115-1.744 21.615 2.012 2.936 4.619 4.996 10.775 8.515 1.15.657-.109 5.249-6.762 24.648-5.307 15.475-8.171 25.345-8.163 28.13.013 4.666 3.004 11.547 5.668 13.037 1.369.767.808 1.317-3.12 3.054-2.635 1.165-5.001 2.119-5.259 2.119-1.61 0-6.277 4.452-6.277 5.989 0 3.021 4.61 3.257 20.095 1.03 12.45-1.791 14.676-2.39 16.405-4.414 1.691-1.98 3.314-2.45 10.5-3.042 7.239-.597 11.28-.208 27.247 2.618 12.781 2.263 18.747 3.725 18.75 4.594.004 1.566 3.072 2.784 9.003 3.574 4.403.586 4.381.566-1-.945-7.805-2.192-8.055-3.085-1.089-3.894 8.593-.997 8.455-2.283-.196-1.816-4.825.261-11.687-.417-20.715-2.046-9.5-1.714-12.181-2.467-9.05-2.542 3.423-.081 4.177-.379 3.268-1.288-.909-.909-5.339-.88-19.193.125-9.906.719-19.477 1.654-21.268 2.08l-3.257.772 3.25.103c1.788.056 3.25.535 3.25 1.063 0 1.293-5.628 2.651-16.5 3.983-4.95.607-10.35 1.365-12 1.685-4.104.796-2.19-1.124 3.024-3.033 2.187-.8 3.184-1.487 2.215-1.526-.968-.038-3.798.888-6.288 2.058-2.491 1.171-4.811 1.846-5.156 1.5-.346-.345.009-.635.788-.643 1.189-.013 1.196-.156.044-.885-.986-.625.756-1.921 6.186-4.605 6.783-3.352 7.888-3.621 10.772-2.615 1.767.616 3.934 1.084 4.814 1.041.881-.043.251-.551-1.399-1.128-7.82-2.733-12.5-8.939-12.5-16.575 0-2.256 3.453-13.675 8.354-27.627l8.354-23.782 7.896-.279c5.997-.212 9.848-1.035 16.011-3.425 4.463-1.73 8.85-2.864 9.75-2.519 1.195.459 1.635.06 1.635-1.479 0-1.476.631-2.107 2.107-2.107 1.485 0 1.933-.454 1.517-1.538-.334-.87.045-1.782.875-2.1 1.106-.424 1.215-1.027.448-2.462-.794-1.483-.681-1.9.518-1.9 2.084 0 1.93-1.333-.398-3.439-1.062-.962-1.689-2.382-1.393-3.155.297-.773-.028-1.406-.723-1.406-.694 0-2.774-1.153-4.621-2.562-4.309-3.287-12.748-7.104-17.684-8-3.514-.638-4.107-1.232-6.702-6.719l-2.846-6.02 3.201-1.599c4.419-2.208 6.698-7.233 6.699-14.773.002-5.114-.424-6.679-2.477-9.12l-2.479-2.946 3.855-9.021c2.121-4.961 5.249-11.045 6.952-13.521l3.096-4.5-4.27-.64c-9.009-1.351-29.847-13.864-31.741-19.059C35.225 39.83 34.453 25 35.919 25c2.397 0 17.81 7.966 26.589 13.742 4.946 3.255 11.58 8.289 14.742 11.188 3.162 2.899 5.75 4.82 5.75 4.269 0-.55-2.587-3.228-5.75-5.949-18.012-15.501-44.595-28.259-66.194-31.769l-4.444-.722 1.837 2.87m77.82 36.245c-2.328.415-4.578 1.115-5 1.555-.423.44 1.256.457 3.731.039 7.413-1.254 21.088-.818 27.725.882 8.706 2.232 17.148 6.729 25.034 13.336 3.707 3.107 5.616 4.412 4.241 2.899-2.265-2.491-2.489-3.518-2.382-10.917l.117-8.168-.87 6c-.479 3.3-.658 6.563-.399 7.25.702 1.862.205 1.644-7.302-3.212-9.629-6.229-20.323-9.636-31.615-10.071-4.977-.192-10.953-.009-13.28.407M76.27 79.703c-2.766.534-6.27 4.842-6.27 7.709 0 3.043 2.52 6.251 5.497 6.998 7.542 1.893 12.93-8.569 6.868-13.337-1.449-1.14-2.912-2.012-3.25-1.937-.338.075-1.619.33-2.845.567M78.2 82.2c-2.462 2.462-.038 6.443 3.173 5.21 2.086-.8 2.118-5.007.045-5.803-2.014-.773-1.816-.809-3.218.593m45.873 15.435c-2.75 3.495-2.618 6.911.382 9.91 3.34 3.341 7.763 3.265 10.472-.18 1.14-1.449 2.073-3.638 2.073-4.865 0-3.801-3.699-7.5-7.5-7.5-2.433 0-3.924.724-5.427 2.635m2.316-.205c-.996 2.595.399 4.739 2.857 4.39 1.652-.235 2.254-.987 2.254-2.82 0-1.833-.602-2.585-2.254-2.82-1.353-.192-2.496.308-2.857 1.25M99.5 98c.34.55 1.266 1 2.059 1 .793 0 1.441-.45 1.441-1s-.927-1-2.059-1c-1.132 0-1.781.45-1.441 1M83 103c0 .485.383 1.119.852 1.408.468.29.638 3.862.376 7.938-.533 8.307 1.143 19.992 3.358 23.404 1.059 1.632 2.429 2.25 4.985 2.25 2.873 0 4.406-.881 8.297-4.773 2.625-2.625 6.755-8.137 9.179-12.25 2.424-4.112 5.039-7.964 5.812-8.56 1.1-.848.735-1.084-1.676-1.084-2.733 0-5.291-1.365-12.683-6.772-1.543-1.129-3.321-1.283-7.786-.675-4.105.56-6.502.418-8.25-.489-1.355-.703-2.464-.882-2.464-.397m4.534 12.352C83.846 118.048 87.385 137 91.575 137c3.056 0 7.506-3.161 11.42-8.113 2.203-2.787 4.005-5.529 4.005-6.094 0-.566-1.747-2.775-3.882-4.911-3.459-3.459-4.42-3.882-8.809-3.882-2.71 0-5.759.608-6.775 1.352m-46.266 20.037c-7.109 3.4-9.494 7.305-9.016 14.763.434 6.781 3.753 11.789 9.886 14.918 6.049 3.086 17.582 2.824 27.085-.617 4.002-1.449 8.354-2.883 9.671-3.188 2.892-.668 6.106-3.703 6.106-5.765 0-.825.408-1.5.906-1.5.499 0 .671-.9.384-2-.321-1.226-.031-2 .748-2 .848 0 .667-.668-.544-2.006-.998-1.104-1.536-2.285-1.195-2.626.817-.818-9.58-7.478-15.299-9.801-2.843-1.155-7.997-1.985-14-2.255-8.573-.384-10.011-.182-14.732 2.077m122.983 10.01c-2.786 3.871-3.757 6.979-6.813 21.808-1.961 9.511-3.727 17.804-3.926 18.428-.341 1.073-4.663.665-12.384-1.17-2.365-.563-2.37-.546-1.701 6.235.369 3.74 1.181 8.105 1.806 9.701 1.009 2.579 1.218 2.69 1.881 1 .72-1.835.748-1.836.816-.029.056 1.5.352 1.639 1.486.697 1.125-.933 1.508-.804 1.861.628.34 1.381.734 1.041 1.681-1.447.681-1.787 1.306-3.245 1.39-3.239.084.006 2.26.65 4.836 1.432 5.519 1.675 4.43 2.673 12.762-11.689 5.519-9.516 6.492-10.682 8.491-10.18 1.242.311 10.989 3.176 21.66 6.366l19.403 5.801 15.25-15.108c8.387-8.31 15.25-15.41 15.25-15.778 0-.928-12.817-6.129-22.843-9.268-13.27-4.156-31.627-7.449-45.157-8.101l-12.5-.602-3.249 4.515m-11.31 13.164c-2.992 3.033-8.909 8.078-13.149 11.212-7.6 5.618-7.716 5.771-8.372 11.018-.848 6.784-.074 21.953 1.183 23.21.528.528 2.445 1.257 4.261 1.62l3.301.66-.638-4.392c-.35-2.415-.981-7.693-1.4-11.73l-.764-7.338 3.069.64c1.687.351 5.093.89 7.568 1.197l4.5.558 3.259-15.767c1.792-8.672 3.115-15.91 2.941-16.084-.174-.175-2.766 2.164-5.759 5.196M27.134 241.632c-1.852.808-3.132 1.704-2.845 1.991.287.287 2.252-.391 4.367-1.507 4.432-2.338 3.446-2.652-1.522-.484M138 247.483c0 .56 9.577 5.517 10.658 5.517.398 0-.149-.7-1.217-1.555-1.873-1.501-1.864-1.518.253-.495 1.207.584 2.514 1.578 2.905 2.21.418.677.271.878-.359.488-.588-.363-1.221-.205-1.406.351-.209.625-3.156.23-7.713-1.033-9.731-2.696-10.279-1.898-.659.958 8.823 2.619 11.799 2.158 11.346-1.76-.207-1.794-.866-2.621-2.019-2.532-.941.073-1.616-.321-1.5-.875.116-.554-.414-1.234-1.178-1.512-.807-.293-1.115-.06-.734.556 1.174 1.9-1.248 2.317-4.298.74-3.121-1.614-4.079-1.863-4.079-1.058m-9.187 3.2c.721.289 1.584.253 1.916-.079.332-.332-.258-.568-1.312-.525-1.165.048-1.402.285-.604.604" fill="#1976D2" fill-rule="evenodd"/></svg>