<svg xmlns="http://www.w3.org/2000/svg" width="256" height="256"><path fill-opacity=".071" d="M0 128.004v128.004l128.25-.254 128.25-.254.254-127.75L257.008 0H0v128.004m.485.496c0 70.4.119 99.053.265 63.672.146-35.38.146-92.98 0-128C.604 29.153.485 58.1.485 128.5" fill="#1976D2" fill-rule="evenodd"/><path fill-opacity=".177" d="M165.78 7.039c-4.33 2.585-5.12 18.811-1.688 34.651 2.235 10.317 2.116 14.881-.632 24.133l-1.503 5.059-7.416-5.321c-7.211-5.173-7.695-5.355-17.468-6.552-5.528-.677-11.181-.948-12.562-.601-1.562.392-2.511.207-2.511-.49 0-.713-1.633-.99-4.5-.761-4.287.34-5.671-.315-3.5-1.657.55-.34 1-1.041 1-1.559 0-1.645-2.605-1.019-6.359 1.528-2.001 1.358-4.284 2.222-5.072 1.919-.9-.345-1.998.542-2.95 2.383-1.445 2.792-5.551 6.718-10.915 10.434-1.354.938-4.178 5.04-6.277 9.116l-3.814 7.411-3.337-7.616c-4.487-10.241-8.159-23.21-9.2-32.489-1.374-12.251-9.355-23.778-15.412-22.258-2.875.722-7.5 5.051-9.589 8.977-1.335 2.508-1.243 2.869 1.437 5.666L46.374 42H41.81c-2.511 0-5.023.563-5.583 1.25-1.753 2.152-5.009 14.939-5.665 22.25-1.297 14.438 4.535 31.204 14.249 40.965 7.47 7.507 23.55 16.199 33.377 18.042 2.729.512 4.359 1.675 6.325 4.511 1.456 2.102 4.412 5.044 6.567 6.538 2.156 1.494 3.92 3.026 3.92 3.406 0 1.428-4.71 4.926-10.587 7.861-9.618 4.805-15.572 13.067-18.963 26.317-1.57 6.132-1.809 6.449-6.667 8.84-5.131 2.525-8.455 6.123-7.333 7.938.41.665 1.467.621 3.113-.129 1.876-.854 2.781-.845 3.664.038.645.645 1.935 1.173 2.866 1.173 1.839 0 3.341 2.614 1.984 3.452-1.279.791-1.925 4.176-1.063 5.57.594.962 1.297.874 3.1-.389 1.282-.898 3.637-1.633 5.234-1.633 2.699 0 2.86.212 2.294 3.038-.722 3.61 1.86 5.364 3.863 2.624.668-.914 1.728-1.662 2.355-1.662s2.105-.965 3.285-2.145l2.144-2.144-.706 2.815c-.389 1.548-2.816 5.932-5.395 9.741-6.121 9.045-10.116 16.689-10.156 19.436-.018 1.212.492 3.354 1.133 4.76 1 2.194.858 2.884-1 4.861-3.567 3.797-2.41 6.676 2.682 6.676.925 0 3.456.95 5.623 2.112 2.92 1.565 4.367 1.847 5.582 1.088 1.99-1.243 9.585-1.896 10.572-.909 1.184 1.184 4.706.661 7.876-1.169 3.471-2.003 6.496-7.352 6.498-11.489.002-2.501.289-2.782 2.252-2.206 5.998 1.761 17.66 1.775 26.677.033 6.135-1.186 9.824-1.476 10.814-.852.827.522 2.361 3.249 3.41 6.061 2.071 5.55 4.081 6.914 11.349 7.701 2.2.238 5.188.739 6.641 1.112 1.452.374 2.896.268 3.207-.236.312-.504 3.145-.762 6.297-.573 4.801.289 6.349-.065 9.543-2.178 4.57-3.025 4.772-4.817.908-8.067-2.536-2.135-2.837-2.94-2.377-6.367.703-5.244-2.439-11.629-8.779-17.837-4.582-4.486-4.948-5.227-5.898-11.929-.558-3.931-2.145-10.612-3.528-14.848-1.956-5.993-2.514-9.775-2.514-17.039 0-10.868-.136-10.709 10.557-12.417 13.467-2.151 26.031-10.974 32.653-22.928 2.737-4.94 3.564-5.71 6.223-5.791 5.245-.16 9.701-1.458 10.292-2.998.57-1.485-1.534-3.51-2.821-2.715-.38.235-.972-.695-1.316-2.066-.345-1.371-1.068-2.493-1.607-2.493-1.606 0-1.117-2.06.912-3.84 2.483-2.177 3.611-10.497 1.644-12.129-1.098-.912-1.62-.744-2.437.782-.572 1.068-2.084 2.142-3.36 2.386-2.155.412-2.336.088-2.537-4.534-.251-5.773-1.731-8.302-3.836-6.555-.752.624-1.367 1.702-1.367 2.396 0 .693-.91 1.499-2.021 1.789-1.112.291-2.511 1.933-3.109 3.649-.883 2.533-1.354 2.899-2.502 1.947-.786-.653-1.153-1.994-.826-3.023.323-1.018.333-2.262.022-2.765-.954-1.543-4.458-.014-5.168 2.255-.369 1.178-1.504 3.209-2.522 4.513-1.145 1.465-1.636 3.23-1.286 4.622.454 1.811.056 2.38-2.037 2.905-3.229.81-9.803 6.655-12.63 11.23-1.167 1.889-3.964 4.374-6.215 5.522l-4.092 2.087 1.823-2.868c1.002-1.578 2.862-3.994 4.134-5.369 3.197-3.458 6.381-10.835 6.407-14.847.018-2.725.926-4.16 4.88-7.715 2.672-2.403 5.566-5.83 6.431-7.616 1.443-2.978 1.434-3.485-.108-6.114-1.628-2.777-1.607-2.927.68-4.787 1.298-1.057 3.155-1.921 4.127-1.921 4.183 0 8.713-19.817 7.429-32.5-.773-7.637-6.999-20.707-13.093-27.485C183.752 13.93 174.425 7.604 170 6.587c-1.375-.316-3.274-.112-4.22.452m-9.27 75.945c-.737 1.193.199 3.016 1.549 3.016 1.217 0 1.225-2.707.01-3.457-.512-.317-1.213-.118-1.559.441M99 97c0 1.646.518 2.065 2.25 1.82 1.237-.176 2.25-.995 2.25-1.82 0-.825-1.013-1.644-2.25-1.82-1.732-.245-2.25.174-2.25 1.82m55.5 19.968l-4 .532 2.472 1.75c2.373 1.679 2.552 1.67 4.445-.222 2.46-2.46 2.083-2.726-2.917-2.06M145 118c-2.327.745-2.349.808-.309.9 1.205.055 2.469-.35 2.809-.9.34-.55.479-.955.309-.9a2527 2527 0 01-2.809.9m16-.031c0 .532.675.709 1.5.393.825-.317 1.5-.753 1.5-.969 0-.216-.675-.393-1.5-.393s-1.5.436-1.5.969M132 121c-1.219.788-1.09.972.691.985 1.205.008 2.469-.435 2.809-.985.787-1.273-1.53-1.273-3.5 0m-12.919 2.719c-4.081 1.441-4.277 1.664-2.559 2.921 3.751 2.742 8.478.75 8.478-3.574 0-1.328-.452-1.278-5.919.653M157 126.972c0 1.356 1.777 2.198 2.425 1.149.31-.501-.109-1.169-.931-1.485-.822-.315-1.494-.164-1.494.336m-49.5.993c-1.903.785-1.879.873.5 1.813 2.848 1.125 4 .739 4-1.337 0-1.585-1.44-1.738-4.5-.476m42.767 1.285c-1.462 1.868-2.218 5.75-1.12 5.75.527 0 2.588-1.107 4.578-2.459l3.619-2.46-2.737-1.04c-3.38-1.286-3.163-1.296-4.34.209M100 130c1.939 1.253 3 1.253 3 0 0-.55-1.013-.993-2.25-.985-1.819.013-1.963.201-.75.985m8.188 6.063c.24.721 1.028 1.509 1.75 1.75.75.25 1.125-.125.875-.875-.241-.722-1.029-1.51-1.75-1.75-.75-.25-1.125.125-.875.875m12.908 1.335l-2.253 2.398 5.079.352c2.794.194 5.079.115 5.079-.175-.002-1.3-3.239-4.973-4.383-4.973-.698 0-2.283 1.079-3.522 2.398m-8.418-.001c-.346.901.319 1.56 1.869 1.857 2.951.564 3.798-.134 2.322-1.912-1.446-1.743-3.512-1.716-4.191.055M142 137c0 1.253 1.061 1.253 3 0 1.213-.784 1.069-.972-.75-.985-1.238-.008-2.25.435-2.25.985m-8.5 2c-.34.55.309 1 1.441 1 1.132 0 2.059-.45 2.059-1s-.648-1-1.441-1-1.719.45-2.059 1m111 84c-.34.55-.141 1 .441 1s1.059-.45 1.059-1-.198-1-.441-1-.719.45-1.059 1" fill="#1976D2" fill-rule="evenodd"/><path fill-opacity=".436" d="M164.273 9.705c-2.561 3.907-2.574 18.121-.027 30.295 1.093 5.225 1.914 11.525 1.825 14-.188 5.201-2.51 14.839-3.914 16.243-.613.613-2.864-.546-6.224-3.202-8.979-7.097-9.798-7.328-26.556-7.466-7.415-.061-9.021-.339-8.582-1.484.44-1.146-.369-1.284-4.337-.74-3.815.523-4.614.405-3.668-.541.666-.666 1.21-1.811 1.21-2.545 0-1.635-3.235-.168-6.803 3.084-1.884 1.717-2.459 1.846-3.162.707-.662-1.071-1.312-.648-2.821 1.832-1.078 1.773-4.862 5.617-8.409 8.543-5.412 4.464-6.997 6.537-9.852 12.881l-3.402 7.56-2.406-6.186c-5.742-14.763-9.142-26.157-10.111-33.885-1.22-9.735-4.568-17.307-9.609-21.733-1.922-1.687-3.816-3.066-4.21-3.064-1.933.01-7.458 4.346-9.22 7.237-2.523 4.137-2.521 6.414.005 7.991 2.776 1.733 2.498 2.765-.75 2.783-5.222.028-7.547 2.098-9.542 8.496-2.419 7.756-3.386 24.729-1.777 31.157 2.364 9.438 7.78 19.258 13.956 25.3 6.367 6.231 22.232 14.806 31.613 17.087 3.78.919 5.492 1.974 7.017 4.325 1.11 1.711 4.105 4.655 6.656 6.544 4.402 3.257 4.564 3.547 3.181 5.658-.801 1.223-4.527 3.837-8.278 5.809-10.991 5.775-17.903 15.219-20.503 28.011-1.002 4.934-1.639 6.157-3.333 6.408-1.152.171-2.633.958-3.29 1.75S57.205 184 56.533 184c-1.474 0-4.533 3.217-4.533 4.766 0 .7 1.242.907 3.373.561 1.975-.321 3.657-.087 4.059.563.377.61 1.559 1.11 2.627 1.11 2.068 0 2.772 3.368.941 4.5-1.502.928-1.203 4.5.378 4.5.757 0 1.893-.622 2.524-1.382.631-.76 2.598-1.307 4.372-1.217 2.965.152 3.226.439 3.226 3.539 0 3.819 1.993 5.232 2.983 2.115.358-1.13 1.496-2.055 2.528-2.055 1.031 0 2.576-1 3.432-2.223L84 196.555v2.487c0 3.091-3.027 8.905-8.075 15.508-6.324 8.274-9.073 17.702-6.044 20.731.774.774.362 2.023-1.456 4.406-2.713 3.558-2.5 5.313.645 5.313 1.073 0 3.996.961 6.495 2.136 3.737 1.756 4.987 1.934 7.036 1 3.241-1.477 9.676-1.459 11.166.031 1.91 1.91 8.819-1.774 10.68-5.696.854-1.8 1.56-4.105 1.568-5.122.033-4 1.159-4.405 9.37-3.364 5.298.672 9.889.646 14.441-.083 3.671-.587 9.149-1.3 12.174-1.583l5.5-.515 3 6.325c3.663 7.722 4.518 8.051 20.915 8.026 9.502-.015 12.586-.379 15.226-1.801 4.609-2.482 4.949-4.222 1.45-7.418-2.575-2.352-2.973-3.411-2.939-7.826.049-6.225-3.1-12.127-9.475-17.761-3.991-3.527-4.408-4.351-4.984-9.849-.346-3.3-1.81-9.825-3.255-14.5-1.83-5.926-2.742-11.446-3.012-18.226-.451-11.376-.784-10.974 10.913-13.212 14.106-2.699 25.24-10.292 31.974-21.807l3.808-6.51 5.85-.662c6.413-.726 10.072-3.236 6.193-4.25-1.19-.312-2.164-.964-2.164-1.45 0-.485-.94-1.823-2.09-2.973l-2.09-2.09 2.197-2.338c2.444-2.601 4.054-12.482 2.035-12.482-.613 0-1.374.675-1.69 1.5-.317.825-1.328 1.5-2.246 1.5-.919 0-2.718.734-3.998 1.63-2.218 1.554-2.28 1.54-1.306-.278.825-1.543.941-6.298.281-11.602-.174-1.401-3.093-.758-3.093.682 0 .787-1.35 2.393-3 3.568-1.65 1.175-3 2.979-3 4.009 0 1.03-.399 2.12-.887 2.421-1.428.882-3.616-2.5-3.279-5.069.441-3.364-2.559-3.078-4.094.389-.669 1.513-1.784 3.345-2.478 4.071-.694.727-1.262 2.528-1.262 4.002 0 2.143-.873 3.143-4.348 4.987-2.59 1.374-6.127 4.671-8.75 8.156-3.729 4.956-6.828 7.44-12.369 9.914-1.198.534 1.517-3.781 6.542-10.398 3.786-4.986 6.153-11.892 5.255-15.329-.328-1.252.69-2.562 3.367-4.334 2.11-1.396 5.135-4.413 6.722-6.702 2.722-3.928 2.813-4.383 1.608-8.034-1.523-4.617-.968-5.785 3.272-6.873 5.901-1.515 9.307-13.658 8.509-30.337-.364-7.617-.893-9.661-4.272-16.498-4.517-9.14-10.708-16.178-18.941-21.534-7.131-4.639-10.82-4.954-13.322-1.136m1.653-.118c-1.909 2.297-2.479 18.419-.959 27.142.638 3.669 3.345 13.443 6.014 21.721 5.197 16.115 6.885 26.753 5.209 32.823-.563 2.041-.697 3.913-.298 4.161.61.376 11.678-4.671 12.881-5.873.213-.213-.388-1.57-1.335-3.015-2.313-3.53-.746-6.943 3.968-8.648 4.473-1.618 6.378-6.062 7.709-17.978 1.222-10.947-.034-19.282-4.173-27.689-6.819-13.853-24.716-27.818-29.016-22.644M48.615 28.088c-1.46 1.149-3.364 3.459-4.23 5.134-1.522 2.943-1.485 3.13 1.073 5.502 3.588 3.327 2.808 4.682-3.036 5.276l-4.922.5-1.822 5.495c-2.585 7.798-3.798 20.097-2.728 27.654 2.268 16.017 12.69 28.212 27.982 32.742 7.351 2.178 7.39 2.16 5.079-2.37C60.674 97.561 59.71 79.473 63.557 62c1.985-9.02 1.563-20.999-.907-25.737C60.138 31.445 55.035 26 53.031 26c-.969 0-2.956.94-4.416 2.088m97.079 43.162c-.632 6.765 1.009 15.096 4.242 21.543 1.022 2.039 2.059 4.382 2.303 5.207.244.825.243-2.1-.002-6.5-.397-7.097-.201-8.31 1.731-10.75 2.511-3.172 4.106-3.403 7.618-1.102 6.846 4.486 9.256 20.72 3.702 24.932-2.616 1.985-6.647 1.712-9.653-.653-1.449-1.139-2.635-1.851-2.635-1.581s-.266 1.184-.591 2.031c-.743 1.936 4.976 5.614 8.737 5.619 3.84.006 8.406-5.634 9.874-12.195 1.182-5.28 1.156-5.394-3.083-13.687-4.444-8.696-9.956-14.946-15.502-17.578-5.494-2.607-6.097-2.186-6.741 4.714m-53.868 6.776a162.297 162.297 0 01-4.514 5.579C85.028 86.27 82 97.47 82 103.251c0 5.646 4.568 13.411 9.635 16.381 8.26 4.841 19.626 2.003 25.033-6.249 1.52-2.319 1.483-3.023-.562-10.683-3.332-12.474-7.547-20.843-12.364-24.545-5.304-4.076-8.853-4.114-11.916-.129m64.519 5.517c-.754 1.966.138 2.869 2.095 2.118.879-.337 1.276-1.238.936-2.123-.758-1.976-2.272-1.973-3.031.005m-58.047 7.169c-1.211.228-3.576 1.979-5.255 3.892-2.687 3.06-2.982 3.983-2.459 7.687 1.036 7.332 2.441 10.524 6.012 13.659 3.703 3.252 7.824 3.929 11.72 1.928 3.23-1.66 7.684-6.057 7.684-7.587 0-2.757-5.839-13.892-8.614-16.429-3.17-2.897-5.727-3.783-9.088-3.15m.98 4.41c-1.536 1.536-.467 3.878 1.77 3.878 2.457 0 3.404-1.751 1.916-3.544-1.452-1.749-2.203-1.817-3.686-.334m70.096 19.262c-1.72 1.714-3.745 4.916-4.5 7.116-.756 2.2-3.399 6.039-5.874 8.532-15.628 15.739-47.571 16.135-64.186.796-4.59-4.238-5.078-4.42-6.673-2.498-.844 1.016-.459 1.947 1.627 3.938 3.69 3.521 15.887 9.428 23.511 11.386 8.281 2.127 24.893 1.403 32.889-1.434 10.744-3.812 13.965-6.863 26.503-25.11 4.373-6.363 2.175-8.18-3.297-2.726m-17.148 2.455c-.98.622-.841 1.2.606 2.509 2.152 1.948 4.167 1.485 5.948-1.367 1.138-1.823.977-1.98-2.022-1.966-1.792.009-3.831.379-4.532.824m8.774.661c0 .825.395 1.5.878 1.5.482 0 1.437-.675 2.122-1.5 1.04-1.253.896-1.5-.878-1.5-1.22 0-2.122.638-2.122 1.5m-17.714 1.214c1.619 1.619 1.809 1.619 3.428 0S148.238 117 145 117s-3.333.095-1.714 1.714m-8.786.961c-4.477.99-5.115 1.493-3 2.362 2.979 1.225 3.333 1.143 4.5-1.037.589-1.1.942-1.948.785-1.884-.157.064-1.185.315-2.285.559m-16.256 3.989c-4.882 1.728-4.74 2.965.451 3.939 2.876.539 3.902.301 4.965-1.153 1.684-2.303 1.729-4.475.09-4.371-.687.043-3.165.757-5.506 1.585m42.098.586c-.463.771-1.658 1.701-2.655 2.068-1.714.631-1.517 2.682.257 2.682 1.066 0 4.37-5.019 3.728-5.662-.269-.268-.867.142-1.33.912M108 127.532l-3.5 1.236 2.913 1.153c3.138 1.242 5.018.323 4.431-2.167-.29-1.23-.893-1.265-3.844-.222m41.161 3.015c-1.209 2.653-1.538 5.453-.641 5.453.286 0 2.394-1.183 4.684-2.629 3.911-2.469 4.05-2.712 2.289-4-2.829-2.068-5.042-1.657-6.332 1.176M99.5 130c.34.55 1.24 1 2 1s1.66-.45 2-1c.352-.569-.509-1-2-1s-2.352.431-2 1m4.5 5c0 .55.45 1 1 1s1-.45 1-1-.45-1-1-1-1 .45-1 1m3.496 1.007c-.343.554.1 1.285.984 1.624 1.914.734 2.981-.075 2.061-1.564-.83-1.344-2.235-1.371-3.045-.06m5.704.193c-1.728 1.728-1.491 2.491.974 3.135 2.998.784 4.024-.096 2.794-2.396-1.201-2.242-2.09-2.417-3.768-.739m7.625.975c-2.11 2.11-2.117 2.199-.25 2.93 3.307 1.296 8.425 1.023 8.425-.45 0-1.601-3.168-4.655-4.829-4.655-.644 0-2.15.979-3.346 2.175m21.375-.975c-2.061 2.061-1.322 2.738 1.799 1.651 1.649-.575 2.748-1.452 2.441-1.948-.783-1.266-2.82-1.123-4.24.297m-9.7 2.8c-.362.585.676 1 2.5 1 1.824 0 2.862-.415 2.5-1-.34-.55-1.465-1-2.5-1s-2.16.45-2.5 1m18.157 3.136c-5.269 2.752-15.71 4.826-24.407 4.847L119 147l-.006 4.75c-.008 7.056-1.494 11.228-7.009 19.675-9.651 14.785-12.766 23.629-11.55 32.798 1.919 14.463 12.142 22.233 29.065 22.09 12.61-.107 22.838-6.119 27.582-16.212 1.86-3.955 2.065-5.717 1.582-13.573-.306-4.965-.999-11.367-1.541-14.226-.634-3.344-.647-7.444-.036-11.5 2.049-13.597 2.149-15.978.916-21.788-1.831-8.629-2.606-9.355-7.346-6.878m-4.354 7.081c-.017 1.806.318 3.733.745 4.283.956 1.234.038 6.5-1.133 6.5-.469 0-.593.675-.277 1.5 1.064 2.773 3.101 1.532 3.696-2.25.62-3.946-.545-10.861-2.09-12.406-.548-.548-.923.397-.941 2.373" fill="#1976D2" fill-rule="evenodd"/><path fill-opacity=".7" d="M183 15.313c0 .172 1.463 1.635 3.25 3.25l3.25 2.937-2.937-3.25c-2.738-3.029-3.563-3.71-3.563-2.937m-19.921 16.27c.048 1.165.285 1.402.604.605.289-.722.253-1.585-.079-1.917-.332-.332-.568.258-.525 1.312M200.195 51.5c.02 1.65.244 2.204.498 1.231.254-.973.237-2.323-.037-3-.274-.677-.481.119-.461 1.769M64.083 62.395c-3.812 20.341-2.752 36.721 3.007 46.482l2.011 3.409-4.8-.654c-9.169-1.248-20.416-8.69-26.647-17.632-.958-1.375-.553-.188.9 2.638s4.722 7.101 7.265 9.5c2.543 2.399 3.737 3.284 2.653 1.966-2.219-2.696-1.967-2.644 5.061 1.059 2.769 1.458 7.831 3.201 11.25 3.874 3.419.673 6.217 1.598 6.217 2.057 0 .964 7.014 5.906 8.382 5.906.505 0-.919-1.331-3.165-2.958-11.481-8.316-15.963-28.6-11.589-52.435 1.722-9.382 2.302-9.531 4.302-1.107.653 2.75 1.867 6.125 2.697 7.5.977 1.615 1.263 1.792.811.5-1.533-4.381-5.3-18.148-5.609-20.5-.181-1.375-1.417 3.303-2.746 10.395m102.953-9.645c-.02 1.788.344 3.25.809 3.25.465 0 2.096 4.163 3.624 9.25 2.785 9.269 4.648 25.75 2.912 25.75-.496 0-3.263-4.297-6.15-9.549-4.189-7.623-5.045-9.93-4.24-11.435 1.743-3.255 1.086-3.659-.839-.516-1.808 2.953-1.802 3.047.402 6 4.917 6.588 11.592 22.337 12.397 29.247.705 6.06.8 6.273.918 2.07.104-3.708.539-4.812 2.095-5.306 2.081-.66 10.371-9.509 9.616-10.264-.244-.245-3.188.95-6.542 2.654-3.354 1.705-6.267 3.099-6.474 3.099-.206 0-.164-4.388.095-9.75.491-10.189-1.064-17.904-6.502-32.25-1.909-5.035-2.088-5.225-2.121-2.25m-58.817 4.206c-2.806 2.033-4.259 2.58-4.65 1.75-.408-.864-.747-.781-1.198.294-.346.825-3.009 3.836-5.918 6.691-3.546 3.481-4.471 4.819-2.806 4.06 1.862-.848 3.596-.833 6.932.059 5.806 1.553 7.702 1.385 3.921-.346-1.65-.756-4.35-1.396-6-1.424l-3-.049 3.25-3.046c1.787-1.676 3.25-3.522 3.25-4.103s.669-.799 1.488-.485c.827.317 2.666-.522 4.146-1.893 3.584-3.322 4.749-3.105 2.866.536-.883 1.708-1.11 3-.526 3 .564 0 1.026-.363 1.026-.807 0-.444 1.237-1.327 2.75-1.962 1.861-.782 2.023-.984.5-.626-2.514.592-2.72.141-1.215-2.671 1.463-2.733-.086-2.404-4.816 1.022m9.849 2.948c-2.587 3.633-2.669 4.95-.168 2.686 1.647-1.49 3.535-5.59 2.574-5.59-.186 0-1.268 1.307-2.406 2.904m48.09-.904c0 1.375.227 1.938.504 1.25.278-.687.278-1.812 0-2.5-.277-.687-.504-.125-.504 1.25m-39.908.716c1.513.229 3.988.229 5.5 0s.275-.416-2.75-.416-4.263.187-2.75.416m11.5.984c2.526.486 2.814 1.336 1.05 3.1-.66.66-.853 1.2-.429 1.2.425 0 1.447-.675 2.272-1.5.825-.825 2.347-1.5 3.382-1.5 1.778 0 1.793.155.271 2.806-1.148 2.001-1.376 3.651-.793 5.75.665 2.398.887 2.573 1.196.944 1.296-6.839 1.211-6.729 4.846-6.305 1.9.222 3.455.305 3.455.186 0-1.309-7.709-4.301-12-4.657-3.025-.252-4.488-.262-3.25-.024m27.408 3.3c0 1.375.227 1.938.504 1.25.278-.687.278-1.812 0-2.5-.277-.687-.504-.125-.504 1.25M31.232 71c0 1.925.206 2.713.457 1.75.252-.963.252-2.537 0-3.5-.251-.963-.457-.175-.457 1.75m60.821 2.947c-2.218 2.218-5.416 8.024-4.773 8.666.235.235 1.619-1.373 3.076-3.574 3.697-5.587 6.67-6.111 12.271-2.163 3.367 2.374 4.199 2.668 3.418 1.208-3-5.605-10.35-7.779-13.992-4.137m-8.71 7.546c-1.957 4.12-3.954 7.247-4.438 6.948-1.103-.681.025 8.51 1.295 10.559.612.986.738-.166.369-3.361-.487-4.22-.043-5.967 3.37-13.25C86.101 77.775 87.652 74 87.386 74c-.267 0-2.086 3.372-4.043 7.493M73.084 75c-.041.275 1.037 3.2 2.397 6.5 1.359 3.3 2.476 5.325 2.482 4.5.011-1.411-4.72-12.074-4.879-11m49.891 3.25c-1.826 1.237-3.53 2.925-3.785 3.75-.293.947.457.654 2.032-.792 2.688-2.468 9.182-4.694 10.791-3.7.543.336.987.133.987-.449 0-1.9-6.624-1.114-10.025 1.191m31.06 2.684c-1.314 2.455-1.357 18.596-.056 21.027 2.336 4.365 10.653 4.463 12.96.153 2.478-4.63.616-15.112-3.566-20.083-3.034-3.606-7.702-4.154-9.338-1.097m-27.554.404c-3.089 1.403-9.992 8.484-9.12 9.356.266.266 2.142-1.352 4.169-3.596 4.425-4.898 9.679-6.686 15.179-5.168 2.023.559 3.891.803 4.151.543 2.109-2.109-10.111-3.073-14.379-1.135m28.96 1.758c-1.057 1.71 2.277 4.586 3.685 3.178.627-.627.869-1.845.538-2.707-.692-1.803-3.225-2.086-4.223-.471m-27.02 2.8c-2.243 1.019-5.054 3.093-6.246 4.609-4.418 5.616-5.089 15.453-1.289 18.891 2.336 2.115 9.838 5.303 14.496 6.161 5.06.932 3.483 1.79-7.961 4.334-4.907 1.091-11.819 3.136-15.361 4.546-3.541 1.41-7.677 2.563-9.191 2.563-1.513 0-3.059.498-3.435 1.107-.456.738-.004.891 1.357.459 2.54-.806 3.689.791 1.735 2.412-1.174.974-1.912.709-3.854-1.386-1.321-1.426-3.151-2.592-4.068-2.592-.917 0-1.915-.647-2.218-1.437-.583-1.519-3.386-1.019-3.386.603 0 .524.381.716.847.429.466-.288 2.143.829 3.726 2.482 1.584 1.653 5.047 4.396 7.697 6.096 4.641 2.978 4.867 3.022 6.212 1.209 1.151-1.552 1.736-1.675 3.329-.704 1.483.905 2.211.905 3.132 0 .923-.907 1.613-.672 2.999 1.024l1.8 2.201 2.379-2.694c2.224-2.519 2.232-2.571.129-.797-2.111 1.781-2.364 1.795-4.105.219-1.134-1.026-2.593-1.423-3.75-1.021-1.042.362-.345-.527 1.549-1.976 1.895-1.449 4.456-2.634 5.691-2.634 1.236 0 2.563-.511 2.948-1.135.47-.76 3.213-.969 8.309-.632 4.185.276 6.596.305 5.358.065-1.238-.24-2.25-.785-2.25-1.209 0-1.195 7.266-3.089 11.852-3.089 4.993 0 13.148 2.065 13.148 3.33 0 2.131 2.878-1.723 4.544-6.085.993-2.6 3.533-6.338 5.644-8.307 2.111-1.968 3.532-3.884 3.158-4.258-1.274-1.275-2.346-.684-2.346 1.294 0 3.309-4.608 4.729-17.062 5.256l-11.562.489 4.932-4.932c4.78-4.78 4.918-5.081 4.47-9.744-.694-7.219-3.627-12.151-8.798-14.793-5.322-2.719-9.146-2.812-14.559-.354m-33.144 7.077c-3.999 2.438-4.934 5.864-3.485 12.77 2.752 13.12 11.955 16.683 20.873 8.082 3.145-3.033 3.156-3.08 1.718-7.156-4.855-13.761-11.356-18.422-19.106-13.696m86.202 2.358c-3.715 2.085-5.952 5.669-3.538 5.669 1.426 0 8.709-6.683 8.027-7.366-.289-.289-2.309.475-4.489 1.697m27.865-.748c-.397 1.054-1.986 3.11-3.533 4.568-1.546 1.458-2.793 3.258-2.771 4 .022.742.723.089 1.558-1.45 1.195-2.204 1.983-2.659 3.71-2.138 3.405 1.028 3.765 1.782 2.479 5.191-1.441 3.816-.482 5.185 2.036 2.907 2.347-2.125 2.745-2.093 5.267.429l2.09 2.09-2.09 2.224c-2.515 2.678-2.575 3.403-.469 5.73 1.053 1.163 1.346 2.418.837 3.579-.432.983-.824 2.217-.872 2.742-.047.525-1.211 1.304-2.586 1.731-2.077.645-1.993.685.5.235 7.194-1.3 8.5-1.704 8.5-2.628 0-.539-.858-1.205-1.908-1.479-1.049-.274-2.161-1.245-2.471-2.156-.309-.912-1.138-2.464-1.842-3.45-1.087-1.523-.96-2.048.845-3.5 1.39-1.117 2.332-3.336 2.725-6.414.612-4.794-.683-7.468-1.844-3.809-.405 1.274-1.512 2.015-3.013 2.015-1.306 0-2.652.45-2.992 1-1.087 1.758-2.763 1.112-1.946-.75 1.002-2.284.597-10.488-.576-11.667-.552-.555-1.197-.16-1.634 1m-110.35.924c-1.107 1.334-1.063 1.852.264 3.18 2.145 2.144 4.972.953 4.562-1.922-.391-2.739-3.027-3.426-4.826-1.258M196.2 98.2c-.66.66-1.2 1.637-1.2 2.171 0 .534-.668 1.709-1.484 2.611-1.35 1.492-1.148 1.634 2.25 1.579 3.133-.051 3.785.301 4.054 2.189.376 2.647 2.18 3.053 2.18.491 0-.968-.931-2.341-2.068-3.052-1.632-1.019-1.932-1.913-1.421-4.24.677-3.08-.266-3.794-2.311-1.749M44 103.378c0 .207.788.995 1.75 1.75 1.586 1.243 1.621 1.208.378-.378-1.307-1.666-2.128-2.195-2.128-1.372m147.394 5.62c.058 1.648.645 2.998 1.304 3 .897.001.935-.752.152-2.998-1.313-3.768-1.59-3.769-1.456-.002M53.45 112.36c2.099 1.911 12.878 7.661 14.271 7.614.429-.015-2.48-1.756-6.462-3.871-3.983-2.114-7.829-4.239-8.547-4.723-.719-.484-.386-.043.738.98m148.793-.203c-3.119 3.119.338 9.338 4.822 8.673 3.498-.518 4.731-3.317 2.903-6.589-1.683-3.013-5.709-4.1-7.725-2.084m-15.802 1.398c-1.83 1.467-1.798 1.487.559.365 3.061-1.458 3.628-1.92 2.358-1.92-.537 0-1.849.7-2.917 1.555m-5.517 4.195l-2.424 2.75 2.75-2.424c2.57-2.266 3.209-3.076 2.424-3.076-.179 0-1.416 1.237-2.75 2.75m-36.74-.956c-2.747.284-3.112.588-2.127 1.774 1.517 1.828 4.361 1.838 5.869.021 1.465-1.765.492-2.232-3.742-1.795m6.475-.119c-.968.967 2.368 4.325 4.296 4.325.905 0 2.187-.542 2.85-1.205.663-.663 2.401-1.226 3.862-1.25 1.461-.025 2.83-.558 3.041-1.184.42-1.243-12.845-1.89-14.049-.686m-69.637 4.513c-.014 1.682 1.17 3.928 3.162 6 1.751 1.822 2.667 2.611 2.037 1.754-.631-.856-2.053-3.556-3.162-6-1.763-3.887-2.018-4.106-2.037-1.754m51.478-1.475c-3.409.82-3.934 2.14-1.132 2.843 2.591.651 5.632-.796 5.632-2.678 0-.922-1.175-.965-4.5-.165m-61 1.823c1.65.756 3.675 1.36 4.5 1.343.825-.017-.075-.638-2-1.379-4.566-1.758-6.362-1.732-2.5.036m48.5 1.159c-2.475.824-4.903 1.88-5.396 2.348-1.168 1.107 5.747 4.42 7.68 3.678 1.621-.622 3.999-6.43 2.906-7.1-.379-.233-2.715.25-5.19 1.074m55 2.074c-1.925 2.052-4.4 4.31-5.5 5.018-1.1.708-1.437 1.019-.75.691.688-.328 1.25-.064 1.25.585 0 .856.359.884 1.298.105 1.353-1.123 8.06-10.182 7.514-10.149-.172.01-1.887 1.698-3.812 3.75m-15-.269c0 .825.402 1.5.893 1.5s1.152-.675 1.469-1.5c.35-.914.001-1.5-.893-1.5-.808 0-1.469.675-1.469 1.5m-52.5 2.872c-2.965 1.268-2.974 1.296-.816 2.455 3.001 1.612 4.988 1.469 5.709-.409 1.434-3.735.234-4.237-4.893-2.046m45-.504c-2.071.436-3.465 1.621-4.5 3.824-1.003 2.134-2.329 3.295-4 3.5-1.438.177-2.918 1.262-3.485 2.553-.542 1.235-2.117 2.702-3.5 3.261l-2.515 1.016 2.5-.497c1.375-.274 2.986-.504 3.579-.511.594-.008 1.044-1.026 1-2.264-.062-1.755.472-2.25 2.421-2.25 1.425 0 2.398.522 2.262 1.214-.142.727.393.972 1.334.611 1.1-.422 1.224-.818.414-1.319-.855-.528-.747-1.699.413-4.475 1.404-3.361 1.888-3.712 4.574-3.318 2.05.301 3.003.02 3.003-.886 0-.73-.113-1.274-.25-1.209-.137.065-1.6.403-3.25.75M208 130c-1.122 2.2-1.818 4-1.546 4s1.244-1.463 2.16-3.25c.916-1.787 2.165-3.581 2.776-3.985.781-.517.746-.739-.12-.75-.676-.008-2.148 1.785-3.27 3.985m-52.44 1.721l-1.94 2.659 2.659-1.94c1.462-1.067 2.672-2.278 2.69-2.69.064-1.528-1.526-.609-3.409 1.971m3.093 3.882c-2.665 2.418-4.53 4.397-4.143 4.397 1.337 0 10.551-7.844 9.772-8.319-.43-.262-2.963 1.503-5.629 3.922m-31.73.474c1.692 1.692 3.077 3.469 3.077 3.948 0 .479-2.362 1.049-5.25 1.268-4.555.345-4.361.398 1.462.396 3.692-.001 6.466-.401 6.164-.889-.985-1.594 1.808-3.872 4.015-3.275 1.929.522 1.953.473.287-.567-1.442-.901-2.219-.779-3.725.585-1.818 1.645-2.034 1.582-4.829-1.411-1.61-1.722-3.23-3.132-3.602-3.132-.372 0 .709 1.385 2.401 3.077m-23.358-1.182c-.305.493.104 1.148.909 1.457 1.562.599 2.897-.648 1.832-1.713-.904-.904-2.093-.793-2.741.256M151 135c-.901.582-1.025.975-.309.985.655.008 1.469-.435 1.809-.985.767-1.242.421-1.242-1.5 0m21.063 1.168c-.104 2.737 1.042 4.819 3.305 6.005 2.042 1.071 2.06 1.037.435-.798-.934-1.054-2.143-3.032-2.687-4.396-.639-1.601-1.012-1.888-1.053-.811m29.037 3.953c-2.42 2.767-6.807 6.39-9.75 8.05-2.942 1.661-5.35 3.23-5.35 3.487 0 1.189 10.268-5.303 13.885-8.779 3.371-3.238 6.958-8.001 5.9-7.834-.157.025-2.265 2.309-4.685 5.076m-108.037 2.215l-3.437 4.164 3.783-3.613 3.783-3.612 6.934 2.913c3.813 1.602 9.282 3.1 12.154 3.329l5.22.416-4.5-.864c-2.475-.475-7.425-1.989-11-3.364-3.575-1.376-7.175-2.734-8-3.018-.93-.32-2.807 1.068-4.937 3.649M110.5 139c.34.55 1.068 1 1.618 1s.722-.45.382-1c-.34-.55-1.068-1-1.618-1s-.722.45-.382 1m5.25 1.662c.688.278 1.813.278 2.5 0 .688-.277.125-.504-1.25-.504s-1.937.227-1.25.504m25.063 4.021c.721.289 1.584.253 1.916-.079.332-.332-.258-.568-1.312-.525-1.165.048-1.402.285-.604.604m-7.051 1.024c1.244.239 3.044.23 4-.02s-.062-.446-2.262-.435c-2.2.011-2.982.216-1.738.455m-51.422 3.271c-2.837 1.627-6.143 4.436-7.345 6.241L72.81 158.5l2.845-3.228c1.565-1.776 5.32-4.58 8.345-6.232 3.025-1.652 5.05-3.008 4.5-3.013-.55-.004-3.322 1.323-6.16 2.951m80.449 13.522c.319 10.006 1.024 17.311 1.881 19.5.754 1.925 1.071 2.375.704 1-.366-1.375-.862-7.477-1.102-13.561-.424-10.781-.376-11.091 1.897-12.255 2.3-1.179 2.301-1.187.081-.622-1.923.489-2.265.163-2.35-2.245-.055-1.549-.442-3.942-.861-5.317s-.532 4.7-.25 13.5m-51.122-11.833c-.367.366-.667 1.476-.667 2.465 0 2.215-5.694 8.868-7.59 8.868-1.62 0-3.347 3.913-5.812 13.171-1.341 5.034-2.614 7.432-5.188 9.774-4.073 3.707-4.182 4.503-.91 6.647 2.706 1.773 3.518 5.013 1.015 4.052-.872-.335-1.917.24-2.535 1.393-1.346 2.515-2.606 2.501-3.27-.037-.287-1.1-1.295-2-2.239-2-1.49 0-1.536.23-.343 1.75 2.018 2.574 3.124 3.218 5.555 3.235 1.295.009 2.44.828 2.817 2.015 1.241 3.909 2.5 1.912 2.5-3.965 0-4.941-.343-6.148-2-7.035-2.717-1.454-2.542-2.256 1.338-6.15 2.557-2.566 3.762-5.089 5.152-10.784 1.613-6.604 2.352-7.928 6.622-11.861 2.644-2.435 5.32-5.983 5.947-7.883 1.114-3.377.941-4.989-.392-3.655m36.412.142c-.043.72-.562 1.01-1.153.645-.59-.365-.478.299.25 1.475 1.049 1.694 1.392 1.815 1.651.586.18-.854.103-2.107-.171-2.784-.374-.924-.518-.904-.577.078m32.421 2.23c-1.65.459-5.025 1.274-7.5 1.811l-4.5.976 5.5-.546c3.025-.3 6.85-1.124 8.5-1.831 3.401-1.458 2.459-1.651-2-.41m-32.364 5.211c-.075 1.512-.613 2.75-1.195 2.75-.582 0-.745.508-.362 1.128 1.03 1.666 2.648-1.694 2.123-4.407-.362-1.869-.451-1.785-.566.529m-78.185 4.847c-1.15 2.253-1.919 4.268-1.709 4.478.209.21 1.36-1.634 2.556-4.097 2.726-5.609 1.989-5.941-.847-.381M66.5 172c-.38 1.729-.482 3.351-.227 3.606.255.255.751-.974 1.102-2.731.834-4.168.026-4.976-.875-.875m-1.5 7c0 1.246-.667 2-1.768 2-1.817 0-9.156 4.504-10.467 6.424-1.38 2.021-.766 2.527 1.857 1.53 1.821-.693 3.032-.656 3.966.119.74.614 1.922.884 2.628.6.807-.324.634-.544-.466-.594-1.245-.056-1.75-.914-1.75-2.972 0-2.942 1.442-4.107 5.082-4.107 1.379 0 1.918-.702 1.918-2.5 0-1.375-.225-2.5-.5-2.5s-.5.9-.5 2m.955 8.757c-1.539 1.055-2.395 2.452-2.167 3.538.207.988-.113 3.198-.71 4.912-1.351 3.873-.851 4.448 2.08 2.395 1.258-.881 3.812-1.602 5.676-1.602 3.316 0 3.375.073 2.747 3.422-.74 3.945.796 5.61 2.404 2.606C76.582 201.913 77.939 201 79 201c1.061 0 2.461-1.012 3.11-2.25l1.181-2.25-2.227 1.979c-2.083 1.851-2.291 1.867-3.196.25-.532-.951-1.62-1.729-2.418-1.729-.797 0-1.45-.35-1.45-.777 0-1.595 3.165-5.223 4.557-5.223.794 0 1.443-.45 1.443-1 0-1.979-2.326-.935-5.565 2.5-1.815 1.925-3.533 3.5-3.816 3.5-.284 0-1.705-1.102-3.158-2.449-3.015-2.794-2.631-4.028 1.866-5.998 2.381-1.043 2.674-1.409 1.173-1.465-1.1-.041-3.145.71-4.545 1.669m102.124 5.826c.048 1.165.285 1.402.604.605.289-.722.253-1.585-.079-1.917-.332-.332-.568.258-.525 1.312m.921 5.191c0 1.71.443 3.382.985 3.717.615.38.749-.63.356-2.691-.842-4.422-1.341-4.803-1.341-1.026m-84.735 3.306c-.598 1.419-3.669 6.369-6.826 11-3.157 4.631-6.347 9.868-7.089 11.638-1.502 3.58-1.793 8.89-.531 9.67.451.279.629-.786.398-2.365-.622-4.238 1.376-9.25 6.417-16.098 2.467-3.351 4.981-7.18 5.586-8.509 1.508-3.308 2.442-3.031 3.188.947.347 1.849 1.584 4.212 2.748 5.25l2.118 1.887-1.835-3.5c-1.009-1.925-2.116-5.525-2.461-8-.602-4.325-.669-4.4-1.713-1.92m85.814 4.088c-.043.918-.372 2.432-.73 3.366-.518 1.348-.24 1.566 1.353 1.061 1.528-.485 3.01.453 6.228 3.945 10.971 11.902 8.983 23.46-4.036 23.46-2.694 0-3.786.366-3.323 1.114 1.053 1.704 8.304.354 11.739-2.185 2.89-2.137 3.054-2.151 4.347-.384 1.341 1.834 1.853 5.455.772 5.455-.315 0-1.247-.675-2.072-1.5-2.177-2.177-3.24-1.869-5.154 1.494-1.981 3.482-5.14 3.938-6.971 1.006-1.576-2.524-4.334-2.552-7.371-.074-2.21 1.803-2.242 1.972-.501 2.649 1.988.773 3.516.823 13.602.446 5.149-.193 7.139-.759 9.799-2.788l3.339-2.546-3.446-3.594c-2.842-2.963-3.359-4.15-2.948-6.768.795-5.059-1.483-10.011-7.658-16.647-3.163-3.398-6.007-6.853-6.32-7.678-.47-1.236-.584-1.206-.649.168M136.5 231.54c-3.277.913-3.794 1.219-1.5.887 12.22-1.766 12.026-1.769 13.577.182 1.465 1.843 1.495 1.84 1.204-.109-.381-2.552-6.09-2.965-13.281-.96m-31.384 2.71c.076 2.134.285 2.563.608 1.25.27-1.1.948-2.562 1.506-3.25.733-.903.565-1.25-.608-1.25-1.187 0-1.591.871-1.506 3.25m6.384-1.202c3.075.733 20.167 1.247 19.417.584-.229-.202-5.367-.577-11.417-.833s-9.65-.144-8 .249m38.582 2.234c-.163 1.561 2.748 7.494 4.066 8.288 1.065.641 1.108.508.199-.628-.635-.793-1.835-3.017-2.669-4.942-.833-1.925-1.552-3.148-1.596-2.718m-80.929 3.877c-2.598 3.201-2.266 5.841.734 5.841 1.072 0 2.549.151 3.281.336.733.185.994.147.582-.083-.412-.231-.75-1.192-.75-2.136 0-.944-.532-2.249-1.183-2.9-1.982-1.982-.327-2.328 3.497-.73 1.992.832 5.999 1.457 8.904 1.39l5.282-.124-6.366-.911c-3.501-.501-7.551-1.51-9-2.243-2.443-1.236-2.804-1.122-4.981 1.56m34.411 2.341c-1.305 3.124-4.564 4.957-4.564 2.567 0-2.125-4.196-2.231-6.4-.161-2.603 2.446-6.821 2.737-8.6.594-1.637-1.972-5.411-1.914-7.09.108-1.134 1.367-1.048 1.818.569 3 2.307 1.687 4.163 1.781 5.104.257.47-.76 3.046-.956 7.809-.592 8.385.639 12.236-.996 14.309-6.076.718-1.758 1.084-3.197.815-3.197-.269 0-1.147 1.575-1.952 3.5m53.705 3.193c.973.254 2.323.237 3-.037.677-.274-.119-.481-1.769-.461-1.65.02-2.204.244-1.231.498" fill="#1976D2" fill-rule="evenodd"/></svg>